<svg width="300" height="360" xmlns="http://www.w3.org/2000/svg">
 <metadata id="metadata7">image/svg+xml</metadata>

 <g>
  <title>background</title>
  <rect fill="none" id="canvas_background" height="362" width="302" y="-1" x="-1"/>
 </g>
 <g>
  <title>Layer 1</title>
  <g stroke="null" id="layer1">
   <path stroke="null" fill="#f6e084" stroke-width="1px" id="text2396" d="m189.385276,79.182172c0,-23.907839 -22.487272,-38.138956 -40.567004,-38.138956c-23.182548,0 -38.929682,19.628007 -38.929682,41.169127c0,19.842901 17.555515,38.50966 39.297351,38.50966c21.318524,0 40.199336,-17.643339 40.199336,-41.53983zm-109.33596,0.37639c0,-47.603231 39.053896,-68.028364 69.136624,-68.028364c38.134545,0 69.194051,30.238945 69.194051,67.706367c0,27.884467 -9.974135,47.448594 -28.437347,58.118338c18.609662,-1.237243 37.744282,-3.769639 54.693722,-10.513296c17.681412,-7.0349 33.046928,-18.497281 46.028104,-30.177438c-2.852125,14.957097 -9.49768,34.063896 -9.740702,52.636914c-0.245291,18.744434 3.852721,34.216364 12.830187,48.307611c2.465891,4.271034 -1.681362,3.791698 -3.082472,1.484446c-34.020162,-43.707669 -81.135819,-40.447304 -126.777512,-40.447304l0,52.755823l13.393803,0l9.908343,-10.237736l0,45.491927l-11.677989,-10.407902l-11.624157,0l0,63.440408l20.041806,-13.677626l-33.34628,68.424466l-34.792093,-69.089192l20.357174,14.421073l0,-63.519128l-13.589495,0l-11.086603,10.407902l0,-45.491927l10.08004,10.237736l14.596059,0l0,-52.755823c-31.353147,0.409056 -61.736962,5.396328 -83.976392,15.383061c-17.978266,8.073237 -32.259135,19.379375 -32.513658,34.739358c-0.219612,13.255207 3.265873,24.800898 18.929467,24.800898c15.131751,0 18.915059,-7.241532 18.915059,-12.680013c0,-5.275021 -3.816968,-10.11829 -8.205943,-11.387587c13.372459,19.443612 -20.662468,27.612375 -22.203653,7.53581c-1.070902,-13.950534 11.75059,-17.433775 21.750888,-17.433775c10.000325,0 18.90162,10.86592 20.005137,22.062864c0.940236,9.540241 -8.277345,22.79073 -29.728192,22.65884c-26.352743,-0.16198 -32.50463,-17.633445 -32.50463,-35.420328c0,-23.088399 19.863837,-41.009493 42.958128,-52.896128c21.442967,-11.036698 45.042885,-17.124247 62.828111,-18.060888c-18.968636,-10.389796 -32.359582,-29.876886 -32.359582,-58.389384l-0.000002,-0.000002z"/>
  </g>
 </g>
</svg>